<svg xmlns="http://www.w3.org/2000/svg" xmlns:xlink="http://www.w3.org/1999/xlink" width="500" zoomAndPan="magnify" viewBox="0 0 375 374.999991" height="500" preserveAspectRatio="xMidYMid meet" version="1.0"><defs><filter x="0%" y="0%" width="100%" height="100%" id="0337654525"><feColorMatrix values="0 0 0 0 1 0 0 0 0 1 0 0 0 0 1 0 0 0 1 0" color-interpolation-filters="sRGB"/></filter><clipPath id="87463f97d4"><path d="M 46.457031 81 L 268 81 L 268 301.640625 L 46.457031 301.640625 Z M 46.457031 81 " clip-rule="nonzero"/></clipPath><mask id="a61d786903"><g filter="url(#0337654525)"><rect x="-37.5" width="450" fill="#000000" y="-37.499999" height="449.999989" fill-opacity="0.7"/></g></mask><clipPath id="71bcfa5716"><path d="M 0.457031 0.359375 L 221 0.359375 L 221 220.640625 L 0.457031 220.640625 Z M 0.457031 0.359375 " clip-rule="nonzero"/></clipPath><clipPath id="789f1b2d1a"><rect x="0" width="222" y="0" height="221"/></clipPath><clipPath id="721d31f7ec"><path d="M 107 80 L 328.457031 80 L 328.457031 301.640625 L 107 301.640625 Z M 107 80 " clip-rule="nonzero"/></clipPath><mask id="945b60a05a"><g filter="url(#0337654525)"><rect x="-37.5" width="450" fill="#000000" y="-37.499999" height="449.999989" fill-opacity="0.7"/></g></mask><clipPath id="90a0c6d6f1"><path d="M 1 1 L 221.457031 1 L 221.457031 221.640625 L 1 221.640625 Z M 1 1 " clip-rule="nonzero"/></clipPath><clipPath id="8365f7f79b"><rect x="0" width="222" y="0" height="222"/></clipPath></defs><g clip-path="url(#87463f97d4)"><g mask="url(#a61d786903)"><g transform="matrix(1, 0, 0, 1, 46, 81)"><g clip-path="url(#789f1b2d1a)"><g clip-path="url(#71bcfa5716)"><path fill="#1e40af" d="M 141.285156 220.371094 C 120.984375 220.371094 100.683594 212.644531 85.230469 197.191406 L 23.699219 135.660156 C 8.722656 120.6875 0.480469 100.78125 0.480469 79.605469 C 0.480469 58.429688 8.722656 38.523438 23.699219 23.550781 C 54.605469 -7.359375 104.898438 -7.359375 135.808594 23.550781 L 197.339844 85.082031 C 212.3125 100.054688 220.558594 119.960938 220.558594 141.136719 C 220.558594 162.3125 212.3125 182.21875 197.339844 197.191406 C 181.882812 212.644531 161.585938 220.371094 141.285156 220.371094 Z M 79.753906 35.433594 C 68.433594 35.433594 57.117188 39.742188 48.503906 48.355469 C 40.15625 56.703125 35.558594 67.800781 35.558594 79.605469 C 35.558594 91.410156 40.15625 102.507812 48.503906 110.851562 L 110.035156 172.382812 C 127.265625 189.617188 155.300781 189.617188 172.53125 172.382812 C 180.878906 164.039062 185.476562 152.941406 185.476562 141.136719 C 185.476562 129.332031 180.878906 118.234375 172.53125 109.886719 L 111 48.355469 C 102.386719 39.742188 91.070312 35.433594 79.753906 35.433594 Z M 79.753906 35.433594 " fill-opacity="1" fill-rule="nonzero"/></g></g></g></g></g><g clip-path="url(#721d31f7ec)"><g mask="url(#945b60a05a)"><g transform="matrix(1, 0, 0, 1, 107, 80)"><g clip-path="url(#8365f7f79b)"><g clip-path="url(#90a0c6d6f1)"><path fill="#2563eb" d="M 80.714844 221.371094 C 60.414062 221.371094 40.113281 213.644531 24.660156 198.191406 C 9.6875 183.21875 1.441406 163.3125 1.441406 142.136719 C 1.441406 120.960938 9.6875 101.054688 24.660156 86.082031 L 86.191406 24.550781 C 117.097656 -6.359375 167.390625 -6.359375 198.300781 24.550781 C 213.273438 39.523438 221.519531 59.429688 221.519531 80.605469 C 221.519531 101.78125 213.273438 121.6875 198.300781 136.660156 L 136.769531 198.191406 C 121.3125 213.644531 101.011719 221.371094 80.714844 221.371094 Z M 142.246094 36.433594 C 130.929688 36.433594 119.609375 40.742188 110.996094 49.355469 L 49.464844 110.886719 C 41.117188 119.234375 36.519531 130.332031 36.519531 142.136719 C 36.519531 153.941406 41.117188 165.039062 49.464844 173.386719 C 66.695312 190.617188 94.730469 190.617188 111.960938 173.386719 L 173.492188 111.855469 C 181.839844 103.507812 186.4375 92.410156 186.4375 80.605469 C 186.4375 68.800781 181.839844 57.703125 173.492188 49.355469 C 164.878906 40.742188 153.5625 36.433594 142.246094 36.433594 Z M 142.246094 36.433594 " fill-opacity="1" fill-rule="nonzero"/></g></g></g></g></g></svg>